<svg width="211" height="35" viewBox="0 0 211 35" fill="none" xmlns="http://www.w3.org/2000/svg">
<path d="M50.1278 11.8578C50.218 11.643 50.2932 11.4307 50.3584 11.2283C51.1454 8.66814 50.0526 7.29302 47.0852 7.09552H42.0927L37.6642 15.6597H24.8421L29.3008 7.09552H18.797L8 27.8975H18.5063L22.9323 19.3308H35.7569L31.3008 27.8975H36.2456C37.3709 27.8235 38.4185 27.5988 39.381 27.2038C41.7318 26.2607 43.5138 24.6239 44.7343 22.2835L50.1278 11.8578Z" fill="#004EA2"/>
<path d="M85.6492 12.7044C85.9173 12.181 86.1229 11.6897 86.2632 11.2305C87.0552 8.67036 85.9599 7.29525 82.9875 7.09774L52.995 7.09528C52.995 7.09528 56.6542 8.33708 55.178 11.1737H55.1805L48.3935 24.2484C46.8998 27.0776 43.0452 27.9096 43.0452 27.9096L72.193 27.8997C73.3158 27.8257 74.361 27.601 75.3309 27.206C77.6767 26.2629 79.4637 24.6261 80.6843 22.2857L85.6492 12.7044ZM75.6141 11.7662L69.792 22.9943H69.7895C69.3835 23.6658 68.193 24.1768 66.9499 24.1768L66.9449 24.1892H59.1955L66.1579 10.7713H74.9875C75.4813 10.8281 75.7494 11.2478 75.5915 11.7662H75.6141Z" fill="#004EA2"/>
<path d="M129.729 15.3583C130.05 14.4844 130.423 14.5807 129.619 14.5807C128.408 14.5807 125.982 14.4128 125.408 14.1388C124.667 13.7734 124.779 13.0155 125.048 12.3514C125.236 11.9613 125.383 11.5836 125.491 11.2281C126.278 8.66792 125.158 7.0953 122.218 7.0953L88.9272 7.09283C88.9272 7.09283 92.5714 8.34204 91.1127 11.1713L84.2856 24.32C82.7368 27.1147 78.9749 27.9072 78.9749 27.9072L93.2004 27.8973L102.093 10.7368C102.093 10.7368 106.416 10.6306 103.774 15.7015L97.451 27.8948H98.1152C99.6816 27.8356 102.792 28.1096 105.195 24.7224L112.446 10.7442C112.829 10.8182 116.524 10.6281 114.158 15.5756L107.772 27.8948H111.449C112.288 27.8948 113.599 27.601 114.579 27.2011C116.652 26.3617 118.286 24.994 119.476 23.0733C123.215 17.6716 129.268 17.2692 129.268 17.2692C130.942 17.01 130.316 18.0147 130.316 18.0147C134.278 14.9189 129.729 15.3583 129.729 15.3583Z" fill="#004EA2"/>
<path d="M142.872 9.07526V12.2946H140.165V9.07773H138.659L138.662 16.9704H140.168L140.165 13.6771H142.872L142.875 16.968H144.383L144.381 9.07526H142.872Z" fill="#161616"/>
<path d="M149.702 9.07775L148.231 12.1539L146.752 9.07775L145.095 9.07528L147.476 13.7265V16.968H148.982L148.98 13.7265L151.356 9.07281L149.702 9.07775Z" fill="#161616"/>
<path d="M156.328 9.07281L156.331 14.1906C156.331 14.6498 156.208 14.9979 155.95 15.2621C155.694 15.5188 155.366 15.6497 154.937 15.6497C154.501 15.6497 154.168 15.5188 153.92 15.2621C153.672 14.9979 153.549 14.6498 153.549 14.1906L153.546 9.07281H152.043L152.045 14.2424C152.045 15.0646 152.321 15.741 152.872 16.2545C153.419 16.768 154.11 17.0272 154.937 17.0272C155.765 17.0272 156.459 16.7656 157.005 16.252C157.554 15.7385 157.832 15.0596 157.832 14.2375L157.83 9.06787L156.328 9.07281Z" fill="#161616"/>
<path d="M163.639 9.07034V13.9437L160.408 9.07528L159.088 9.07034L159.09 16.9631H160.594V12.0798L163.819 16.9631H165.148L165.145 9.06787L163.639 9.07034Z" fill="#161616"/>
<path d="M172.053 11.3194C171.945 10.7145 171.697 10.2109 171.306 9.82825C170.805 9.32462 170.103 9.06786 169.228 9.07033H166.391L166.394 16.963H169.231C169.649 16.963 170.04 16.8989 170.391 16.7631C170.755 16.6396 171.06 16.452 171.308 16.1977C171.669 15.8422 171.905 15.3904 172.015 14.8621C172.088 14.5239 172.128 14.0202 172.128 13.3734V12.9587C172.13 12.1538 172.105 11.6206 172.053 11.3194ZM167.897 10.4479H169.11C169.604 10.4479 169.99 10.5936 170.263 10.8997C170.416 11.07 170.521 11.3243 170.572 11.6724C170.604 11.9119 170.627 12.3464 170.627 12.9587C170.627 13.5907 170.607 14.0499 170.572 14.3116C170.524 14.6844 170.419 14.9559 170.271 15.1263C169.99 15.4275 169.609 15.5756 169.113 15.5756H167.9L167.897 10.4479Z" fill="#161616"/>
<path d="M176.323 9.06537H175.148L172.246 16.9606H173.85L174.373 15.4398H177.11L177.619 16.9581H179.226L176.323 9.06537ZM176.659 14.1289H174.84L175.762 11.4996L176.659 14.1289Z" fill="#161616"/>
<path d="M181.697 9.06293H180.19V16.9556H181.697V9.06293Z" fill="#161616"/>
<path d="M143.842 19.8367L141.78 24.2855L139.687 19.8392H138.251L138.253 27.7368H139.754L139.752 23.2856L141.253 26.3667L142.326 26.3691L143.775 23.3153L143.777 27.7344H145.278L145.276 19.8367H143.842Z" fill="#161616"/>
<path d="M148.208 19.9577H146.704V27.8554H148.208V19.9577Z" fill="#161616"/>
<path d="M154.306 19.9553L154.308 24.8336L151.083 19.9627L149.757 19.9553L149.76 27.8529H151.266L151.263 22.9647L154.486 27.8504H155.817L155.815 19.9553H154.306Z" fill="#161616"/>
<path d="M161.767 19.9528L161.769 25.073C161.769 25.5322 161.642 25.8803 161.394 26.142C161.14 26.4062 160.805 26.5296 160.378 26.5296C159.937 26.5296 159.607 26.4062 159.361 26.142C159.113 25.8877 158.995 25.5322 158.995 25.0755L158.993 19.9552H157.489L157.491 25.1347C157.491 25.9494 157.769 26.6234 158.316 27.1394C158.865 27.6529 159.561 27.9097 160.381 27.9097C161.213 27.9097 161.907 27.6529 162.451 27.1394C162.998 26.6234 163.276 25.9494 163.276 25.1347L163.273 19.9552L161.767 19.9528Z" fill="#161616"/>
<path d="M164.13 19.9503V21.3378H166.213L166.216 27.848H167.719L167.717 21.3353H169.805L169.802 19.9503H164.13Z" fill="#161616"/>
<path d="M176.213 21.3328V19.9478L171.018 19.9503L171.02 27.8455H176.216V26.4605L172.521 26.4629V24.5496L175.667 24.5472V23.1819L172.521 23.1844L172.519 21.3353L176.213 21.3328Z" fill="#161616"/>
<path d="M181.92 19.9454L181.922 24.8237L178.699 19.9528L177.371 19.9478L177.374 27.843H178.877V22.9548L182.1 27.843H183.431L183.429 19.9454H181.92Z" fill="#161616"/>
<path d="M190.053 21.3279V19.9429L184.857 19.9453L184.862 27.8405H190.055V26.458H186.366V24.5447H189.511V23.177L186.363 23.1795V21.3303L190.053 21.3279Z" fill="#161616"/>
<path d="M195.84 23.8263C195.654 23.6683 195.446 23.535 195.206 23.4461C194.977 23.3498 194.692 23.2832 194.336 23.2264L193.476 23.098C193.138 23.0486 192.887 22.9499 192.719 22.7993C192.564 22.6586 192.494 22.4734 192.494 22.2265C192.494 21.9402 192.589 21.7056 192.797 21.5155C193.005 21.3304 193.308 21.2267 193.687 21.2267C194.013 21.2267 194.301 21.2711 194.546 21.3501C194.789 21.4341 195.015 21.5698 195.213 21.7649L195.341 21.8809L196.331 20.9082L196.193 20.7774C195.549 20.1824 194.717 19.8738 193.722 19.8738C192.9 19.8738 192.238 20.1009 191.752 20.5354C191.266 20.9675 191.013 21.56 191.013 22.2685C191.013 22.9326 191.221 23.4609 191.629 23.8436C191.99 24.1793 192.506 24.3966 193.155 24.4879L194.05 24.6138C194.256 24.6435 194.414 24.6805 194.516 24.7249C194.614 24.7669 194.707 24.8212 194.787 24.8928C194.945 25.036 195.023 25.2459 195.023 25.5396C195.023 25.8507 194.91 26.0803 194.684 26.2556C194.441 26.4333 194.093 26.5198 193.639 26.5198C193.263 26.5198 192.927 26.4679 192.627 26.3667C192.341 26.263 192.07 26.1001 191.827 25.8532L191.704 25.7297L190.689 26.7271L190.817 26.853C191.183 27.2357 191.599 27.5023 192.048 27.6677C192.496 27.8257 193.025 27.8998 193.619 27.8998C194.469 27.8998 195.173 27.6875 195.704 27.2727C196.243 26.8456 196.519 26.2482 196.519 25.5125C196.516 24.7842 196.286 24.2238 195.84 23.8263Z" fill="#161616"/>
<path d="M202.323 23.8238C202.141 23.6658 201.925 23.5325 201.697 23.4436C201.461 23.3473 201.176 23.2807 200.817 23.2239L199.965 23.0955C199.627 23.0461 199.374 22.9474 199.203 22.7968C199.053 22.6561 198.97 22.4709 198.97 22.224C198.97 21.9377 199.08 21.7031 199.281 21.513C199.489 21.3279 199.787 21.2242 200.181 21.2242C200.501 21.2242 200.79 21.2686 201.038 21.3476C201.281 21.4316 201.506 21.5673 201.699 21.7624L201.827 21.8784L202.817 20.9057L202.687 20.7749C202.035 20.1799 201.203 19.8713 200.211 19.8713C199.389 19.8713 198.727 20.0984 198.246 20.5329C197.757 20.9649 197.501 21.5575 197.501 22.266C197.501 22.9301 197.709 23.4584 198.118 23.8411C198.484 24.1768 199 24.3941 199.647 24.4854L200.542 24.6113C200.747 24.641 200.897 24.678 201.005 24.7224C201.105 24.7644 201.201 24.8187 201.273 24.8903C201.431 25.0335 201.509 25.2434 201.509 25.5371C201.509 25.8482 201.396 26.0778 201.171 26.2531C200.935 26.4308 200.579 26.5173 200.128 26.5173C199.752 26.5173 199.416 26.4654 199.115 26.3642C198.83 26.2605 198.557 26.0976 198.311 25.8507L198.191 25.7272L197.173 26.7246L197.296 26.8505C197.667 27.2332 198.083 27.4998 198.532 27.6652C198.975 27.8232 199.504 27.8973 200.1 27.8973C200.958 27.8973 201.657 27.685 202.186 27.2702C202.719 26.8431 203 26.2457 203 25.51C203 24.7817 202.772 24.2213 202.323 23.8238Z" fill="#161616"/>
</svg>
