<svg width="195" height="21" viewBox="0 0 195 21" fill="none" xmlns="http://www.w3.org/2000/svg">
<path d="M135.842 12.7439L133.779 17.1927L131.687 12.7464H130.25L130.253 20.644H131.754L131.752 16.1928L133.253 19.2738L134.326 19.2763L135.774 16.2224L135.777 20.6415H137.278L137.276 12.7439H135.842Z" fill="white"/>
<path d="M140.208 12.8647H138.704V20.7624H140.208V12.8647Z" fill="white"/>
<path d="M146.306 12.8623L146.308 17.7406L143.083 12.8697L141.757 12.8623L141.759 20.76H143.266L143.263 15.8718L146.486 20.7575H147.817L147.814 12.8623H146.306Z" fill="white"/>
<path d="M153.767 12.8599L153.769 17.9801C153.769 18.4393 153.642 18.7874 153.394 19.0491C153.14 19.3133 152.805 19.4367 152.378 19.4367C151.937 19.4367 151.607 19.3133 151.361 19.0491C151.113 18.7948 150.995 18.4393 150.995 17.9826L150.993 12.8623H149.489L149.491 18.0418C149.491 18.8565 149.769 19.5305 150.316 20.0465C150.865 20.56 151.561 20.8168 152.381 20.8168C153.213 20.8168 153.907 20.56 154.451 20.0465C154.998 19.5305 155.276 18.8565 155.276 18.0418L155.273 12.8623L153.767 12.8599Z" fill="white"/>
<path d="M156.13 12.8574V14.2449H158.213L158.216 20.7551H159.719L159.717 14.2424H161.805L161.802 12.8574H156.13Z" fill="white"/>
<path d="M168.213 14.24V12.855L163.018 12.8574L163.02 20.7526H168.216V19.3676L164.521 19.3701V17.4568L167.667 17.4543V16.0891L164.521 16.0916L164.519 14.2424L168.213 14.24Z" fill="white"/>
<path d="M173.919 12.8525L173.922 17.7309L170.699 12.8599L169.371 12.855L169.373 20.7502H170.877V15.862L174.1 20.7502H175.431L175.428 12.8525H173.919Z" fill="white"/>
<path d="M182.052 14.2351V12.8501L176.857 12.8526L176.862 20.7477H182.055V19.3652H178.366V17.4519H181.511V16.0842L178.363 16.0867V14.2376L182.052 14.2351Z" fill="white"/>
<path d="M187.839 16.7335C187.654 16.5755 187.446 16.4422 187.205 16.3533C186.977 16.2571 186.691 16.1904 186.336 16.1336L185.476 16.0052C185.138 15.9559 184.887 15.8571 184.719 15.7065C184.564 15.5658 184.493 15.3806 184.493 15.1338C184.493 14.8474 184.589 14.6128 184.797 14.4227C185.005 14.2376 185.308 14.1339 185.686 14.1339C186.012 14.1339 186.3 14.1783 186.546 14.2573C186.789 14.3413 187.015 14.4771 187.213 14.6721L187.341 14.7881L188.331 13.8154L188.193 13.6846C187.549 13.0896 186.717 12.781 185.722 12.781C184.9 12.781 184.238 13.0081 183.752 13.4426C183.265 13.8747 183.012 14.4672 183.012 15.1757C183.012 15.8398 183.22 16.3682 183.629 16.7508C183.99 17.0866 184.506 17.3038 185.155 17.3952L186.05 17.5211C186.255 17.5507 186.413 17.5877 186.516 17.6322C186.614 17.6741 186.707 17.7285 186.787 17.8001C186.945 17.9432 187.022 18.1531 187.022 18.4469C187.022 18.7579 186.91 18.9875 186.684 19.1628C186.441 19.3406 186.092 19.427 185.639 19.427C185.263 19.427 184.927 19.3751 184.626 19.2739C184.341 19.1702 184.07 19.0073 183.827 18.7604L183.704 18.637L182.689 19.6344L182.817 19.7603C183.183 20.1429 183.599 20.4096 184.047 20.575C184.496 20.733 185.025 20.807 185.619 20.807C186.468 20.807 187.173 20.5947 187.704 20.18C188.243 19.7529 188.519 19.1554 188.519 18.4197C188.516 17.6914 188.285 17.131 187.839 16.7335Z" fill="white"/>
<path d="M194.323 16.7311C194.14 16.5731 193.925 16.4398 193.697 16.3509C193.461 16.2546 193.175 16.188 192.817 16.1312L191.965 16.0028C191.626 15.9534 191.373 15.8547 191.203 15.7041C191.053 15.5634 190.97 15.3782 190.97 15.1313C190.97 14.8449 191.08 14.6104 191.281 14.4203C191.489 14.2351 191.787 14.1315 192.18 14.1315C192.501 14.1315 192.789 14.1759 193.038 14.2549C193.281 14.3388 193.506 14.4746 193.699 14.6697L193.827 14.7857L194.817 13.813L194.687 13.6821C194.035 13.0872 193.203 12.7786 192.21 12.7786C191.388 12.7786 190.727 13.0057 190.246 13.4402C189.757 13.8722 189.501 14.4647 189.501 15.1733C189.501 15.8374 189.709 16.3657 190.118 16.7484C190.484 17.0841 191 17.3014 191.647 17.3927L192.541 17.5186C192.747 17.5483 192.897 17.5853 193.005 17.6297C193.105 17.6717 193.2 17.726 193.273 17.7976C193.431 17.9408 193.509 18.1506 193.509 18.4444C193.509 18.7555 193.396 18.9851 193.17 19.1604C192.935 19.3381 192.579 19.4245 192.128 19.4245C191.752 19.4245 191.416 19.3727 191.115 19.2715C190.829 19.1678 190.556 19.0048 190.311 18.758L190.19 18.6345L189.173 19.6319L189.296 19.7578C189.667 20.1405 190.083 20.4071 190.531 20.5725C190.975 20.7305 191.504 20.8046 192.1 20.8046C192.957 20.8046 193.657 20.5923 194.185 20.1775C194.719 19.7504 195 19.153 195 18.4173C195 17.689 194.772 17.1286 194.323 16.7311Z" fill="white"/>
<path d="M134.872 1.98267V5.20197H132.165V1.98514H130.659L130.662 9.87785H132.168L132.165 6.58449H134.872L134.875 9.87538H136.383L136.381 1.98267H134.872Z" fill="white"/>
<path d="M141.702 1.98492L140.231 5.06103L138.752 1.98492L137.095 1.98245L139.476 6.63364V9.87516H140.982L140.98 6.63364L143.356 1.97998L141.702 1.98492Z" fill="white"/>
<path d="M148.328 1.98004L148.331 7.09783C148.331 7.55703 148.208 7.90513 147.95 8.16929C147.694 8.42604 147.366 8.55688 146.937 8.55688C146.501 8.55688 146.168 8.42604 145.92 8.16929C145.672 7.90513 145.549 7.55703 145.549 7.09783L145.546 1.98004H144.042L144.045 7.14968C144.045 7.97178 144.321 8.64823 144.872 9.16174C145.418 9.67524 146.11 9.93447 146.937 9.93447C147.764 9.93447 148.459 9.67278 149.005 9.15927C149.554 8.64576 149.832 7.96684 149.832 7.14474L149.829 1.9751L148.328 1.98004Z" fill="white"/>
<path d="M155.639 1.97757V6.85095L152.409 1.9825L151.088 1.97757L151.09 9.87028H152.594V4.98702L155.82 9.87028H157.148L157.146 1.9751L155.639 1.97757Z" fill="white"/>
<path d="M164.053 4.22662C163.945 3.62177 163.697 3.11814 163.306 2.73547C162.805 2.23184 162.103 1.97509 161.228 1.97756H158.391L158.394 9.87027H161.231C161.649 9.87027 162.04 9.80608 162.391 9.6703C162.755 9.54686 163.06 9.35923 163.308 9.10495C163.669 8.74944 163.905 8.29765 164.015 7.76933C164.088 7.43111 164.128 6.92747 164.128 6.28065V5.8659C164.13 5.06107 164.105 4.52781 164.053 4.22662ZM159.897 3.35514H161.11C161.604 3.35514 161.99 3.5008 162.263 3.80693C162.416 3.97727 162.521 4.23156 162.572 4.57966C162.604 4.81913 162.627 5.25364 162.627 5.8659C162.627 6.49791 162.607 6.9571 162.572 7.21879C162.524 7.59158 162.419 7.86315 162.271 8.03349C161.99 8.33468 161.609 8.48281 161.113 8.48281H159.9L159.897 3.35514Z" fill="white"/>
<path d="M168.323 1.97266H167.148L164.246 9.86784H165.85L166.373 8.34707H169.11L169.619 9.86537H171.226L168.323 1.97266ZM168.659 7.03614H166.84L167.762 4.40688L168.659 7.03614Z" fill="white"/>
<path d="M173.697 1.97021H172.19V9.86293H173.697V1.97021Z" fill="white"/>
<path d="M121.729 8.2655C122.05 7.39155 122.424 7.48783 121.619 7.48783C120.409 7.48783 117.983 7.31995 117.409 7.04592C116.667 6.68054 116.78 5.92262 117.048 5.25852C117.236 4.86845 117.384 4.49072 117.491 4.13522C118.278 1.57509 117.158 0.00246884 114.218 0.00246884L80.9275 0C80.9275 0 84.5716 1.24921 83.1129 4.07844L76.2859 17.2272C74.737 20.0219 70.9751 20.8143 70.9751 20.8143L85.2007 20.8045L94.0929 3.64393C94.0929 3.64393 98.4162 3.53777 95.7746 8.60866L89.4513 20.802H90.1155C91.6819 20.7427 94.7921 21.0168 97.1957 17.6296L104.446 3.65134C104.83 3.7254 108.524 3.5353 106.158 8.48275L99.7721 20.802H103.449C104.288 20.802 105.599 20.5082 106.579 20.1083C108.652 19.2689 110.286 17.9012 111.476 15.9805C115.216 10.5788 121.268 10.1763 121.268 10.1763C122.943 9.91712 122.316 10.9219 122.316 10.9219C126.278 7.82606 121.729 8.2655 121.729 8.2655Z" fill="white"/>
<path d="M77.6489 5.61153C77.9171 5.08814 78.1226 4.59686 78.263 4.13766C79.0549 1.57753 77.9597 0.202413 74.9873 0.00491025L44.9948 0.00244141C44.9948 0.00244141 48.6539 1.24424 47.1778 4.08088H47.1803L40.3933 17.1556C38.8996 19.9848 35.0449 20.8168 35.0449 20.8168L64.1928 20.8069C65.3156 20.7329 66.3607 20.5082 67.3306 20.1132C69.6765 19.1701 71.4635 17.5333 72.684 15.1929L77.6489 5.61153ZM67.6138 4.67339L61.7918 15.9014H61.7893C61.3833 16.5729 60.1928 17.084 58.9497 17.084L58.9447 17.0963H51.1953L58.1577 3.67847H66.9873C67.481 3.73525 67.7492 4.15494 67.5913 4.67339H67.6138Z" fill="white"/>
<path d="M42.1278 4.76498C42.218 4.55019 42.2932 4.33788 42.3584 4.13544C43.1454 1.5753 42.0526 0.200189 39.0852 0.00268555H34.0927L29.6642 8.56691H16.8421L21.3008 0.00268555H10.797L0 20.8047H10.5063L14.9323 12.238H27.7569L23.3008 20.8047H28.2456C29.3709 20.7306 30.4185 20.506 31.381 20.111C33.7318 19.1679 35.5138 17.5311 36.7343 15.1907L42.1278 4.76498Z" fill="white"/>
</svg>
